# xmcd CD database file
#
# Track frame offsets:
#	150
#	12694
#	32362
#	46114
#	59982
#	77393
#	90173
#	100653
#	115179
#	128762
#	142438
#	159342
#
# Disc length: 2333 seconds
#
# Revision: 0
# Processed by: cddbd v1.5.2PL0 Copyright (c) Steve Scherf et al.
# Submitted via: CDex 1.70beta2
#
DISCID=93091b0c
DTITLE=Frank Torres - Taking Chances
DYEAR=1900
DGENRE=Country
TTITLE0=Clean Down To The Bone
TTITLE1=Taking Chances
TTITLE2=Everybody's Used To Be
TTITLE3=I'm Not Over Getting Over You
TTITLE4=Ol' Pickup Waltz
TTITLE5=Tomorrow Night (I'll Start All Over Again)
TTITLE6=Stay Away From Me (Bear's Song)
TTITLE7=Truck Driving Is My Wife
TTITLE8=Our Love Is Gone
TTITLE9=I'm A Fool For Fooling Me
TTITLE10=Tell Me A Little Lie
TTITLE11=Backyard BBQ
EXTD=
EXTT0=
EXTT1=
EXTT2=
EXTT3=
EXTT4=
EXTT5=
EXTT6=
EXTT7=
EXTT8=
EXTT9=
EXTT10=
EXTT11=
PLAYORDER=
